<svg xmlns="http://www.w3.org/2000/svg" viewBox="0 0 369.828 73.143"><g xmlns="http://www.w3.org/2000/svg" fill="#ff5722"><path d="M61.85 57.376c-.157.144-.33.268-.49.409a29.387 29.387 0 0 1-2.09 1.67 29.713 29.713 0 0 1-2.156 1.417c-.369.22-.746.426-1.124.63-.366.194-.732.386-1.105.564-.436.21-.88.4-1.325.587-.331.138-.658.276-.993.4-.517.194-1.041.364-1.569.528-.283.087-.563.177-.85.255-.581.16-1.171.294-1.768.418-.254.05-.505.108-.76.153-.609.108-1.226.19-1.848.258-.264.03-.525.062-.791.085-.208.018-.411.054-.622.068a28.234 28.234 0 0 1-1.8.056 28.175 28.175 0 0 1-16.305-5.17c-.222-.153-.447-.3-.665-.461a28.034 28.034 0 0 1-1.318-1.069 28.49 28.49 0 0 1-1.23-1.072c-.252-.238-.493-.49-.738-.738-.333-.336-.683-.65-1.001-1.003-.203-.225-.371-.468-.566-.698-.05-.06-.11-.112-.16-.173-.018-.023-.022-.05-.04-.073-4.93-5.97-7.221-13.477-6.403-21.312.826-7.902 4.949-14.884 10.934-19.556l.05-.04c4.01-3.118 8.844-5.209 14.111-5.816 7.06-.831 14.096 1.026 19.808 5.065l.046.03c.634.452 1.242.946 1.843 1.452.185.155.377.299.559.459.112.099.235.181.344.282.556.508 1.368.521 1.898.031.542-.5.603-1.336.134-1.902C56.929 4.703 46.914 0 36.114 0c-.754 0-1.511.025-2.273.069C15.89 1.157 1.381 15.543.097 33.532-.63 43.718 2.771 53.422 9.67 60.86c6.804 7.331 16.433 11.536 26.415 11.536 10.803 0 20.935-4.795 27.796-13.156a1.379 1.379 0 0 0-.148-1.885l-.001-.003c-.53-.494-1.342-.474-1.883.024z"/><path d="M24.023 20.758a.639.639 0 0 0 .072.873h.003c.238.223.602.212.86-.01a19.868 19.868 0 0 1 2.867-2.16c.05-.032.098-.064.15-.094.443-.269.896-.52 1.36-.755l.28-.143a19.39 19.39 0 0 1 1.3-.572c.135-.053.268-.11.405-.161a19.8 19.8 0 0 1 1.212-.404c.187-.058.375-.117.566-.169.348-.095.703-.172 1.06-.25.264-.055.527-.113.794-.16.27-.044.542-.079.814-.112a20.103 20.103 0 0 1 1.125-.12c.056-.004.11-.015.165-.018.08-.005.157.003.236-.001.354-.018.707-.049 1.064-.049.271 0 .538.032.809.043a20.072 20.072 0 0 1 2.306.23c.157.025.313.046.467.075a20.4 20.4 0 0 1 1.867.438c.095.028.192.048.286.076a19.905 19.905 0 0 1 9.038 5.688c3.808 4.209 5.575 9.657 4.977 15.34-.65 6.163-4.252 11.474-9.322 14.623-.117.073-.236.142-.355.213a19.745 19.745 0 0 1-3.635 1.699c-.023.007-.045.018-.067.026a19.89 19.89 0 0 1-2.84.713c-.406.073-.793.2-1.206.247a20.376 20.376 0 0 1-4.402.003c-.47-.047-.93-.133-1.393-.212-.197-.036-.396-.053-.592-.093a19.953 19.953 0 0 1-9.34-4.738.705.705 0 0 0-.433-.171.617.617 0 0 0-.423.16.634.634 0 0 0-.077.856l.114.14a25.13 25.13 0 0 0 1.556 1.666c.165.162.324.335.492.491.41.384.847.73 1.28 1.083.32.258.628.532.96.771.107.078.223.142.33.217a24.523 24.523 0 0 0 8.622 3.818c.152.034.301.077.455.107.61.127 1.228.215 1.848.294.312.04.623.078.937.106a26.033 26.033 0 0 0 2.895.083c.457-.013.916-.025 1.37-.063.186-.016.37-.04.555-.06a25.11 25.11 0 0 0 1.692-.233c.18-.032.357-.072.537-.109a23.883 23.883 0 0 0 1.612-.377c.214-.06.425-.126.636-.19.478-.145.95-.3 1.417-.473.265-.099.524-.205.784-.313.4-.165.799-.337 1.19-.523.301-.143.597-.297.891-.452.341-.18.68-.366 1.011-.561a25.85 25.85 0 0 0 1.84-1.204 24.968 24.968 0 0 0 1.793-1.424c4.68-4.084 7.796-9.906 8.269-16.454.49-6.833-1.808-13.345-6.47-18.333a23.971 23.971 0 0 0-1.72-1.657c-.165-.145-.341-.274-.51-.415a23.9 23.9 0 0 0-1.535-1.2c-.034-.023-.071-.044-.106-.068a24.524 24.524 0 0 0-13.97-4.394 24.247 24.247 0 0 0-18.773 8.816z"/></g><path d="M105.02 13c4.278 0 7.872 1.206 10.781 3.62s4.587 5.604 5.032 9.574h-7.804c-.274-1.814-1.18-3.337-2.721-4.569s-3.303-1.848-5.288-1.848c-3.149 0-5.596 1.13-7.341 3.388s-2.619 5.323-2.619 9.19c0 3.765.882 6.751 2.644 8.959s4.202 3.311 7.316 3.311c2.327 0 4.21-.71 5.647-2.13s2.328-3.449 2.67-6.084h7.804c-.411 4.654-2.08 8.317-5.006 10.986s-6.631 4.005-11.115 4.005c-5.374 0-9.72-1.771-13.04-5.314S87 37.968 87 32.355c0-5.682 1.643-10.328 4.929-13.939S99.579 13 105.02 13zm33.73 10.268c4.244 0 7.598 1.292 10.063 3.876s3.696 5.964 3.696 10.14c0 4.21-1.258 7.589-3.773 10.139s-5.844 3.825-9.986 3.825c-4.21 0-7.547-1.292-10.011-3.876s-3.697-5.947-3.697-10.089c0-4.278 1.258-7.683 3.774-10.216s5.827-3.8 9.934-3.8zm-6.417 14.015c0 2.704.547 4.792 1.642 6.264s2.687 2.207 4.775 2.207c2.156 0 3.773-.753 4.852-2.258s1.617-3.577 1.617-6.213c0-2.738-.556-4.843-1.669-6.314s-2.73-2.208-4.851-2.208c-2.054 0-3.628.736-4.724 2.208s-1.642 3.576-1.642 6.314zm40.404-14.015c.616 0 1.146.085 1.591.257V30.3a12.35 12.35 0 0 0-2.618-.256c-4.792 0-7.188 2.84-7.188 8.522v11.962h-7.29V23.987h6.931v4.928h.103c.718-1.711 1.856-3.08 3.414-4.107s3.243-1.54 5.057-1.54zm19.406 0c3.662 0 6.588 1.283 8.779 3.85s3.286 6.041 3.286 10.422c0 4.005-1.053 7.29-3.158 9.857s-4.937 3.85-8.496 3.85c-3.491 0-6.144-1.334-7.958-4.004h-.103v12.63h-7.29V23.987h6.931v3.388h.103c1.745-2.738 4.38-4.107 7.906-4.107zm-7.906 14.067c0 2.6.547 4.655 1.643 6.16s2.67 2.26 4.723 2.26c2.122 0 3.705-.754 4.749-2.26s1.566-3.56 1.566-6.16c0-2.67-.565-4.766-1.695-6.29s-2.703-2.284-4.723-2.284-3.568.753-4.646 2.26-1.617 3.61-1.617 6.314zm52.52-23.462v6.777h-19.355v7.854h17.763v6.264h-17.763v8.984h19.765v6.777h-27.825V13.873h27.415zm10.216 10.114 5.596 18.122h.103l5.596-18.122h7.239l-8.985 26.542h-8.111l-9.087-26.542h7.65zm33.833-.72c2.498 0 4.723.583 6.674 1.746s3.483 2.85 4.595 5.057 1.668 4.75 1.668 7.624c0 .274-.017.719-.051 1.335h-19.15c.069 2.122.625 3.773 1.669 4.954s2.644 1.771 4.8 1.771c1.335 0 2.559-.333 3.67-1s1.823-1.481 2.132-2.44h6.417c-1.883 5.956-6.024 8.934-12.424 8.934-2.43-.035-4.68-.565-6.751-1.592s-3.722-2.627-4.955-4.8-1.848-4.698-1.848-7.573c0-2.703.625-5.168 1.874-7.392s2.91-3.885 4.98-4.98 4.304-1.643 6.7-1.643zm5.596 11.141c-.342-1.985-.976-3.422-1.9-4.312s-2.242-1.335-3.953-1.335c-1.78 0-3.183.505-4.21 1.515s-1.625 2.387-1.797 4.132h11.86zm26.85-11.14c3.389 0 5.844.856 7.368 2.567s2.284 4.432 2.284 8.163v16.531h-7.29V35.487c0-2.19-.35-3.817-1.053-4.878s-1.908-1.591-3.619-1.591c-1.985 0-3.422.599-4.312 1.797s-1.335 3.166-1.335 5.904v13.81h-7.29V23.987h6.93v3.696h.154c1.814-2.943 4.535-4.415 8.163-4.415zm24.438-7.239v7.958h5.34v4.877h-5.34v13.143c0 1.232.205 2.053.616 2.464s1.232.616 2.464.616c.89 0 1.643-.068 2.26-.205v5.698c-1.028.171-2.465.257-4.313.257-2.807 0-4.895-.48-6.264-1.437s-2.053-2.619-2.053-4.98V28.864h-4.415v-4.877h4.415v-7.958h7.29zm19.714 7.239c3.56 0 6.34.719 8.343 2.156s3.123 3.543 3.362 6.315h-6.93c-.103-1.266-.565-2.182-1.386-2.747s-2.02-.847-3.594-.847c-1.37 0-2.388.206-3.055.616s-1.001 1.027-1.001 1.848c0 .617.222 1.13.667 1.54s1.121.77 2.028 1.079 1.908.564 3.004.77c3.32.65 5.664 1.318 7.033 2.002s2.37 1.506 3.004 2.464.95 2.14.95 3.543c0 2.977-1.087 5.262-3.26 6.854s-5.126 2.387-8.857 2.387c-3.902 0-6.94-.839-9.113-2.516s-3.294-3.953-3.362-6.828h6.93c0 1.37.531 2.456 1.592 3.26s2.396 1.207 4.005 1.207c1.369 0 2.507-.3 3.414-.899s1.36-1.429 1.36-2.49c0-.684-.282-1.25-.847-1.694s-1.36-.839-2.387-1.18-2.619-.737-4.775-1.182c-1.711-.342-3.234-.804-4.569-1.386s-2.353-1.343-3.055-2.284-1.052-2.097-1.052-3.466c0-1.745.42-3.268 1.258-4.57s2.122-2.284 3.85-2.951 3.876-1.001 6.443-1.001z" fill="#303841"/></svg>